<?xml version="1.0" encoding="UTF-8" standalone="no"?>
<!-- Generator: Adobe Illustrator 19.0.0, SVG Export Plug-In . SVG Version: 6.00 Build 0)  -->

<svg
   xmlns:dc="http://purl.org/dc/elements/1.1/"
   xmlns:cc="http://creativecommons.org/ns#"
   xmlns:rdf="http://www.w3.org/1999/02/22-rdf-syntax-ns#"
   xmlns:svg="http://www.w3.org/2000/svg"
   xmlns="http://www.w3.org/2000/svg"
   xmlns:sodipodi="http://sodipodi.sourceforge.net/DTD/sodipodi-0.dtd"
   xmlns:inkscape="http://www.inkscape.org/namespaces/inkscape"
   version="1.1"
   id="Layer_1"
   x="0px"
   y="0px"
   viewBox="0 0 512.001 512.001"
   style="enable-background:new 0 0 512.001 512.001;"
   xml:space="preserve"
   sodipodi:docname="cow_icon.svg"
   inkscape:version="0.92.2 5c3e80d, 2017-08-06"><metadata
     id="metadata47"><rdf:RDF><cc:Work
         rdf:about=""><dc:format>image/svg+xml</dc:format><dc:type
           rdf:resource="http://purl.org/dc/dcmitype/StillImage" /><dc:title /></cc:Work></rdf:RDF></metadata><defs
     id="defs45"><clipPath
       clipPathUnits="userSpaceOnUse"
       id="clipPath3806"><g
         inkscape:label="Clip"
         id="use3808"><g
           transform="matrix(0.67796496,0,0,0.74363298,82.441669,65.630086)"
           id="g3925"><g
             id="g3923"><g
               id="g3921"><path
                 inkscape:connector-curvature="0"
                 id="path3917"
                 d="m 136.795,385.194 c 20.433,44.637 52.686,82.368 119.205,82.368 66.52,0 98.774,-37.732 119.206,-82.369 C 347.191,366.55 302.89,355.254 256,355.254 c -46.889,0 -91.188,11.297 -119.205,29.94 z m 86.392,24.047 c -8.886,0 -16.118,-7.293 -16.118,-16.288 0,-8.997 7.232,-16.283 16.118,-16.283 8.897,0 16.128,7.285 16.128,16.283 0,8.995 -7.229,16.288 -16.128,16.288 z m 65.505,-32.697 c 8.962,0 16.239,7.346 16.239,16.411 0,9.063 -7.279,16.409 -16.239,16.409 -8.973,0 -16.25,-7.346 -16.25,-16.409 0,-9.065 7.278,-16.411 16.25,-16.411 z" /><path
                 inkscape:connector-curvature="0"
                 id="path3919"
                 d="m 504.219,108.787 -6.071,-13.618 -14.216,4.495 c -37.786,11.946 -81.791,25.718 -101.68,31.935 -6.612,-5.268 -14.008,-9.909 -22.168,-13.888 -4.309,-2.101 -8.725,-3.97 -13.205,-5.634 5.967,-14.231 11.732,-36.115 11.732,-67.637 h -33.398 c 0,25.162 -4.285,41.936 -7.877,51.578 -1.082,2.902 -2.163,5.328 -3.162,7.337 -21.244,-3.811 -41.924,-4.47 -58.172,-4.47 -16.262,0 -36.967,0.66 -58.231,4.48 -4.526,-9.15 -10.98,-27.677 -10.98,-58.926 h -33.398 c 0,31.522 5.763,53.406 11.732,67.637 -4.481,1.663 -8.895,3.532 -13.205,5.634 -8.16,3.978 -15.557,8.619 -22.168,13.888 C 109.864,125.382 65.86,111.611 28.072,99.663 L 13.856,95.168 7.785,108.786 c -7.43,16.671 -13.316,41.172 0.837,63.227 17.692,27.569 57.643,36.322 81.713,39.1 -0.264,3.708 -0.413,7.488 -0.413,11.356 0,37.693 8.696,60.774 19.702,89.996 3.649,9.688 7.423,19.705 11.329,31.407 1.081,3.24 2.189,6.49 3.329,9.742 33.529,-20.118 80.946,-31.759 131.722,-31.759 50.776,0 98.193,11.642 131.722,31.759 1.139,-3.252 2.247,-6.504 3.328,-9.742 3.905,-11.703 7.678,-21.72 11.328,-31.407 11.008,-29.222 19.702,-52.302 19.702,-89.996 0,-3.869 -0.149,-7.648 -0.413,-11.356 24.07,-2.778 64.022,-11.531 81.713,-39.1 14.151,-22.055 8.265,-46.555 0.835,-63.226 z m -300.17,138.808 c -11.294,0 -20.486,-9.269 -20.486,-20.702 0,-11.435 9.191,-20.695 20.486,-20.695 11.308,0 20.498,9.26 20.498,20.695 0.001,11.434 -9.188,20.702 -20.498,20.702 z m 103.749,0.156 c -11.404,0 -20.654,-9.338 -20.654,-20.857 0,-11.52 9.25,-20.857 20.654,-20.857 11.39,0 20.64,9.338 20.64,20.857 0,11.519 -9.25,20.857 -20.64,20.857 z" /></g></g></g></g></clipPath></defs><sodipodi:namedview
     pagecolor="#ffffff"
     bordercolor="#666666"
     borderopacity="1"
     objecttolerance="10"
     gridtolerance="10"
     guidetolerance="10"
     inkscape:pageopacity="0"
     inkscape:pageshadow="2"
     inkscape:window-width="1440"
     inkscape:window-height="791"
     id="namedview43"
     showgrid="false"
     inkscape:zoom="0.92187324"
     inkscape:cx="322.79184"
     inkscape:cy="390.71858"
     inkscape:window-x="0"
     inkscape:window-y="1"
     inkscape:window-maximized="1"
     inkscape:current-layer="layer2" /><g
     id="g12" /><g
     id="g14" /><g
     id="g16" /><g
     id="g18" /><g
     id="g20" /><g
     id="g22" /><g
     id="g24" /><g
     id="g26" /><g
     id="g28" /><g
     id="g30" /><g
     id="g32" /><g
     id="g34" /><g
     id="g36" /><g
     id="g38" /><g
     id="g40" /><g
     inkscape:groupmode="layer"
     id="layer1"
     inkscape:label="Layer 1"
     style="display:inline"><circle
       id="path3915"
       cx="254.33957"
       cy="-245.41113"
       style="fill:#dedbe3;stroke-width:0.52754682;fill-opacity:1"
       r="128"
       inkscape:export-xdpi="96"
       inkscape:export-ydpi="96"
       transform="scale(1,-1)" /><circle
       transform="scale(1,-1)"
       inkscape:export-ydpi="96"
       inkscape:export-xdpi="96"
       r="115"
       style="fill:#aade87;fill-opacity:1;stroke-width:0.47396785"
       cy="-245.41113"
       cx="254.33957"
       id="circle179" /><circle
       transform="scale(1,-1)"
       inkscape:export-ydpi="96"
       inkscape:export-xdpi="96"
       r="128"
       style="fill:#dedbe3;fill-opacity:1;stroke-width:0.52754682"
       cy="31.199564"
       cx="214.2039"
       id="circle181" /><circle
       id="circle183"
       cx="214.2039"
       cy="31.199564"
       style="fill:#aade87;fill-opacity:1;stroke-width:0.47396785"
       r="115"
       inkscape:export-xdpi="96"
       inkscape:export-ydpi="96"
       transform="scale(1,-1)" /></g><g
     inkscape:groupmode="layer"
     id="layer3"
     inkscape:label="Layer 3"
     style="display:inline" /><g
     inkscape:groupmode="layer"
     id="layer2"
     inkscape:label="Layer 2"
     style="display:inline"><g
       id="g3905"
       transform="matrix(0.57251075,0,0,0.57251075,107.77557,98.848094)"
       inkscape:export-xdpi="96"
       inkscape:export-ydpi="96"><g
         id="g3903"
         clip-path="url(#clipPath3806)"><g
           inkscape:label="Clip"
           id="g3901"><g
             transform="matrix(0.67796496,0,0,0.74363298,82.441669,65.630086)"
             id="g3899"><g
               id="g3897"><g
                 id="g3895"><path
                   inkscape:connector-curvature="0"
                   id="path3891"
                   d="m 136.795,385.194 c 20.433,44.637 52.686,82.368 119.205,82.368 66.52,0 98.774,-37.732 119.206,-82.369 C 347.191,366.55 302.89,355.254 256,355.254 c -46.889,0 -91.188,11.297 -119.205,29.94 z m 86.392,24.047 c -8.886,0 -16.118,-7.293 -16.118,-16.288 0,-8.997 7.232,-16.283 16.118,-16.283 8.897,0 16.128,7.285 16.128,16.283 0,8.995 -7.229,16.288 -16.128,16.288 z m 65.505,-32.697 c 8.962,0 16.239,7.346 16.239,16.411 0,9.063 -7.279,16.409 -16.239,16.409 -8.973,0 -16.25,-7.346 -16.25,-16.409 0,-9.065 7.278,-16.411 16.25,-16.411 z" /><path
                   inkscape:connector-curvature="0"
                   id="path3893"
                   d="m 504.219,108.787 -6.071,-13.618 -14.216,4.495 c -37.786,11.946 -81.791,25.718 -101.68,31.935 -6.612,-5.268 -14.008,-9.909 -22.168,-13.888 -4.309,-2.101 -8.725,-3.97 -13.205,-5.634 5.967,-14.231 11.732,-36.115 11.732,-67.637 h -33.398 c 0,25.162 -4.285,41.936 -7.877,51.578 -1.082,2.902 -2.163,5.328 -3.162,7.337 -21.244,-3.811 -41.924,-4.47 -58.172,-4.47 -16.262,0 -36.967,0.66 -58.231,4.48 -4.526,-9.15 -10.98,-27.677 -10.98,-58.926 h -33.398 c 0,31.522 5.763,53.406 11.732,67.637 -4.481,1.663 -8.895,3.532 -13.205,5.634 -8.16,3.978 -15.557,8.619 -22.168,13.888 C 109.864,125.382 65.86,111.611 28.072,99.663 L 13.856,95.168 7.785,108.786 c -7.43,16.671 -13.316,41.172 0.837,63.227 17.692,27.569 57.643,36.322 81.713,39.1 -0.264,3.708 -0.413,7.488 -0.413,11.356 0,37.693 8.696,60.774 19.702,89.996 3.649,9.688 7.423,19.705 11.329,31.407 1.081,3.24 2.189,6.49 3.329,9.742 33.529,-20.118 80.946,-31.759 131.722,-31.759 50.776,0 98.193,11.642 131.722,31.759 1.139,-3.252 2.247,-6.504 3.328,-9.742 3.905,-11.703 7.678,-21.72 11.328,-31.407 11.008,-29.222 19.702,-52.302 19.702,-89.996 0,-3.869 -0.149,-7.648 -0.413,-11.356 24.07,-2.778 64.022,-11.531 81.713,-39.1 14.151,-22.055 8.265,-46.555 0.835,-63.226 z m -300.17,138.808 c -11.294,0 -20.486,-9.269 -20.486,-20.702 0,-11.435 9.191,-20.695 20.486,-20.695 11.308,0 20.498,9.26 20.498,20.695 0.001,11.434 -9.188,20.702 -20.498,20.702 z m 103.749,0.156 c -11.404,0 -20.654,-9.338 -20.654,-20.857 0,-11.52 9.25,-20.857 20.654,-20.857 11.39,0 20.64,9.338 20.64,20.857 0,11.519 -9.25,20.857 -20.64,20.857 z" /></g></g></g></g></g></g><g
       id="g3976"
       transform="matrix(4,0,0,4,-1977.937,-334.87596)"
       inkscape:export-xdpi="96"
       inkscape:export-ydpi="96"><circle
         id="circle3948"
         cx="703.42517"
         cy="61.004002"
         style="fill:#dedbe3;stroke-width:0.52754682"
         r="128"
         inkscape:export-xdpi="96"
         inkscape:export-ydpi="96" /><g
         id="g3964"
         transform="matrix(0.57251075,0,0,0.57251075,556.86117,-85.559037)"
         inkscape:export-xdpi="96"
         inkscape:export-ydpi="96"><g
           id="g3962"
           clip-path="url(#clipPath3806)"><g
             inkscape:label="Clip"
             id="g3960"><g
               transform="matrix(0.67796496,0,0,0.74363298,82.441669,65.630086)"
               id="g3958"><g
                 id="g3956"><g
                   id="g3954"><path
                     inkscape:connector-curvature="0"
                     id="path3950"
                     d="m 136.795,385.194 c 20.433,44.637 52.686,82.368 119.205,82.368 66.52,0 98.774,-37.732 119.206,-82.369 C 347.191,366.55 302.89,355.254 256,355.254 c -46.889,0 -91.188,11.297 -119.205,29.94 z m 86.392,24.047 c -8.886,0 -16.118,-7.293 -16.118,-16.288 0,-8.997 7.232,-16.283 16.118,-16.283 8.897,0 16.128,7.285 16.128,16.283 0,8.995 -7.229,16.288 -16.128,16.288 z m 65.505,-32.697 c 8.962,0 16.239,7.346 16.239,16.411 0,9.063 -7.279,16.409 -16.239,16.409 -8.973,0 -16.25,-7.346 -16.25,-16.409 0,-9.065 7.278,-16.411 16.25,-16.411 z" /><path
                     inkscape:connector-curvature="0"
                     id="path3952"
                     d="m 504.219,108.787 -6.071,-13.618 -14.216,4.495 c -37.786,11.946 -81.791,25.718 -101.68,31.935 -6.612,-5.268 -14.008,-9.909 -22.168,-13.888 -4.309,-2.101 -8.725,-3.97 -13.205,-5.634 5.967,-14.231 11.732,-36.115 11.732,-67.637 h -33.398 c 0,25.162 -4.285,41.936 -7.877,51.578 -1.082,2.902 -2.163,5.328 -3.162,7.337 -21.244,-3.811 -41.924,-4.47 -58.172,-4.47 -16.262,0 -36.967,0.66 -58.231,4.48 -4.526,-9.15 -10.98,-27.677 -10.98,-58.926 h -33.398 c 0,31.522 5.763,53.406 11.732,67.637 -4.481,1.663 -8.895,3.532 -13.205,5.634 -8.16,3.978 -15.557,8.619 -22.168,13.888 C 109.864,125.382 65.86,111.611 28.072,99.663 L 13.856,95.168 7.785,108.786 c -7.43,16.671 -13.316,41.172 0.837,63.227 17.692,27.569 57.643,36.322 81.713,39.1 -0.264,3.708 -0.413,7.488 -0.413,11.356 0,37.693 8.696,60.774 19.702,89.996 3.649,9.688 7.423,19.705 11.329,31.407 1.081,3.24 2.189,6.49 3.329,9.742 33.529,-20.118 80.946,-31.759 131.722,-31.759 50.776,0 98.193,11.642 131.722,31.759 1.139,-3.252 2.247,-6.504 3.328,-9.742 3.905,-11.703 7.678,-21.72 11.328,-31.407 11.008,-29.222 19.702,-52.302 19.702,-89.996 0,-3.869 -0.149,-7.648 -0.413,-11.356 24.07,-2.778 64.022,-11.531 81.713,-39.1 14.151,-22.055 8.265,-46.555 0.835,-63.226 z m -300.17,138.808 c -11.294,0 -20.486,-9.269 -20.486,-20.702 0,-11.435 9.191,-20.695 20.486,-20.695 11.308,0 20.498,9.26 20.498,20.695 0.001,11.434 -9.188,20.702 -20.498,20.702 z m 103.749,0.156 c -11.404,0 -20.654,-9.338 -20.654,-20.857 0,-11.52 9.25,-20.857 20.654,-20.857 11.39,0 20.64,9.338 20.64,20.857 0,11.519 -9.25,20.857 -20.64,20.857 z" /></g></g></g></g></g></g></g><g
       inkscape:export-ydpi="96"
       inkscape:export-xdpi="96"
       transform="matrix(4,0,0,4,-3212.38,-345.72344)"
       id="g176"><circle
         inkscape:export-ydpi="96"
         inkscape:export-xdpi="96"
         r="128"
         style="fill:#dedbe3;stroke-width:0.52754682"
         cy="61.004002"
         cx="703.42517"
         id="circle158" /><g
         inkscape:export-ydpi="96"
         inkscape:export-xdpi="96"
         transform="matrix(0.57251075,0,0,0.57251075,556.86117,-85.559037)"
         id="g174"><g
           clip-path="url(#clipPath3806)"
           id="g172"><g
             id="g170"
             inkscape:label="Clip"><g
               id="g168"
               transform="matrix(0.67796496,0,0,0.74363298,82.441669,65.630086)"><g
                 id="g166"><g
                   id="g164"><path
                     d="m 136.795,385.194 c 20.433,44.637 52.686,82.368 119.205,82.368 66.52,0 98.774,-37.732 119.206,-82.369 C 347.191,366.55 302.89,355.254 256,355.254 c -46.889,0 -91.188,11.297 -119.205,29.94 z m 86.392,24.047 c -8.886,0 -16.118,-7.293 -16.118,-16.288 0,-8.997 7.232,-16.283 16.118,-16.283 8.897,0 16.128,7.285 16.128,16.283 0,8.995 -7.229,16.288 -16.128,16.288 z m 65.505,-32.697 c 8.962,0 16.239,7.346 16.239,16.411 0,9.063 -7.279,16.409 -16.239,16.409 -8.973,0 -16.25,-7.346 -16.25,-16.409 0,-9.065 7.278,-16.411 16.25,-16.411 z"
                     id="path160"
                     inkscape:connector-curvature="0" /><path
                     d="m 504.219,108.787 -6.071,-13.618 -14.216,4.495 c -37.786,11.946 -81.791,25.718 -101.68,31.935 -6.612,-5.268 -14.008,-9.909 -22.168,-13.888 -4.309,-2.101 -8.725,-3.97 -13.205,-5.634 5.967,-14.231 11.732,-36.115 11.732,-67.637 h -33.398 c 0,25.162 -4.285,41.936 -7.877,51.578 -1.082,2.902 -2.163,5.328 -3.162,7.337 -21.244,-3.811 -41.924,-4.47 -58.172,-4.47 -16.262,0 -36.967,0.66 -58.231,4.48 -4.526,-9.15 -10.98,-27.677 -10.98,-58.926 h -33.398 c 0,31.522 5.763,53.406 11.732,67.637 -4.481,1.663 -8.895,3.532 -13.205,5.634 -8.16,3.978 -15.557,8.619 -22.168,13.888 C 109.864,125.382 65.86,111.611 28.072,99.663 L 13.856,95.168 7.785,108.786 c -7.43,16.671 -13.316,41.172 0.837,63.227 17.692,27.569 57.643,36.322 81.713,39.1 -0.264,3.708 -0.413,7.488 -0.413,11.356 0,37.693 8.696,60.774 19.702,89.996 3.649,9.688 7.423,19.705 11.329,31.407 1.081,3.24 2.189,6.49 3.329,9.742 33.529,-20.118 80.946,-31.759 131.722,-31.759 50.776,0 98.193,11.642 131.722,31.759 1.139,-3.252 2.247,-6.504 3.328,-9.742 3.905,-11.703 7.678,-21.72 11.328,-31.407 11.008,-29.222 19.702,-52.302 19.702,-89.996 0,-3.869 -0.149,-7.648 -0.413,-11.356 24.07,-2.778 64.022,-11.531 81.713,-39.1 14.151,-22.055 8.265,-46.555 0.835,-63.226 z m -300.17,138.808 c -11.294,0 -20.486,-9.269 -20.486,-20.702 0,-11.435 9.191,-20.695 20.486,-20.695 11.308,0 20.498,9.26 20.498,20.695 0.001,11.434 -9.188,20.702 -20.498,20.702 z m 103.749,0.156 c -11.404,0 -20.654,-9.338 -20.654,-20.857 0,-11.52 9.25,-20.857 20.654,-20.857 11.39,0 20.64,9.338 20.64,20.857 0,11.519 -9.25,20.857 -20.64,20.857 z"
                     id="path162"
                     inkscape:connector-curvature="0" /></g></g></g></g></g></g></g><g
       inkscape:export-ydpi="96"
       inkscape:export-xdpi="96"
       transform="matrix(0.57251075,0,0,0.57251075,67.6399,-177.7626)"
       id="g199"><g
         clip-path="url(#clipPath3806)"
         id="g197"><g
           id="g195"
           inkscape:label="Clip"><g
             id="g193"
             transform="matrix(0.67796496,0,0,0.74363298,82.441669,65.630086)"><g
               id="g191"><g
                 id="g189"><path
                   d="m 136.795,385.194 c 20.433,44.637 52.686,82.368 119.205,82.368 66.52,0 98.774,-37.732 119.206,-82.369 C 347.191,366.55 302.89,355.254 256,355.254 c -46.889,0 -91.188,11.297 -119.205,29.94 z m 86.392,24.047 c -8.886,0 -16.118,-7.293 -16.118,-16.288 0,-8.997 7.232,-16.283 16.118,-16.283 8.897,0 16.128,7.285 16.128,16.283 0,8.995 -7.229,16.288 -16.128,16.288 z m 65.505,-32.697 c 8.962,0 16.239,7.346 16.239,16.411 0,9.063 -7.279,16.409 -16.239,16.409 -8.973,0 -16.25,-7.346 -16.25,-16.409 0,-9.065 7.278,-16.411 16.25,-16.411 z"
                   id="path185"
                   inkscape:connector-curvature="0" /><path
                   d="m 504.219,108.787 -6.071,-13.618 -14.216,4.495 c -37.786,11.946 -81.791,25.718 -101.68,31.935 -6.612,-5.268 -14.008,-9.909 -22.168,-13.888 -4.309,-2.101 -8.725,-3.97 -13.205,-5.634 5.967,-14.231 11.732,-36.115 11.732,-67.637 h -33.398 c 0,25.162 -4.285,41.936 -7.877,51.578 -1.082,2.902 -2.163,5.328 -3.162,7.337 -21.244,-3.811 -41.924,-4.47 -58.172,-4.47 -16.262,0 -36.967,0.66 -58.231,4.48 -4.526,-9.15 -10.98,-27.677 -10.98,-58.926 h -33.398 c 0,31.522 5.763,53.406 11.732,67.637 -4.481,1.663 -8.895,3.532 -13.205,5.634 -8.16,3.978 -15.557,8.619 -22.168,13.888 C 109.864,125.382 65.86,111.611 28.072,99.663 L 13.856,95.168 7.785,108.786 c -7.43,16.671 -13.316,41.172 0.837,63.227 17.692,27.569 57.643,36.322 81.713,39.1 -0.264,3.708 -0.413,7.488 -0.413,11.356 0,37.693 8.696,60.774 19.702,89.996 3.649,9.688 7.423,19.705 11.329,31.407 1.081,3.24 2.189,6.49 3.329,9.742 33.529,-20.118 80.946,-31.759 131.722,-31.759 50.776,0 98.193,11.642 131.722,31.759 1.139,-3.252 2.247,-6.504 3.328,-9.742 3.905,-11.703 7.678,-21.72 11.328,-31.407 11.008,-29.222 19.702,-52.302 19.702,-89.996 0,-3.869 -0.149,-7.648 -0.413,-11.356 24.07,-2.778 64.022,-11.531 81.713,-39.1 14.151,-22.055 8.265,-46.555 0.835,-63.226 z m -300.17,138.808 c -11.294,0 -20.486,-9.269 -20.486,-20.702 0,-11.435 9.191,-20.695 20.486,-20.695 11.308,0 20.498,9.26 20.498,20.695 0.001,11.434 -9.188,20.702 -20.498,20.702 z m 103.749,0.156 c -11.404,0 -20.654,-9.338 -20.654,-20.857 0,-11.52 9.25,-20.857 20.654,-20.857 11.39,0 20.64,9.338 20.64,20.857 0,11.519 -9.25,20.857 -20.64,20.857 z"
                   id="path187"
                   inkscape:connector-curvature="0" /></g></g></g></g></g></g></g></svg>